<?xml version="1.0" standalone="no"?>
<!DOCTYPE svg PUBLIC "-//W3C//DTD SVG 1.1//EN" "http://www.w3.org/Graphics/SVG/1.1/DTD/svg11.dtd" >
<svg xmlns="http://www.w3.org/2000/svg" xmlns:xlink="http://www.w3.org/1999/xlink" version="1.1">
<metadata>
Created by FontForge 20150827 at Sat Apr 16 11:38:54 2016
 By Morss
Copyright Snorgg 2016. All rights reserved.
</metadata>
<defs>
<font id="FontVisGraph" horiz-adv-x="2048" >
  <font-face 
    font-family="FontVisGraph"
    font-weight="400"
    font-stretch="normal"
    units-per-em="2048"
    panose-1="0 0 0 0 0 0 0 0 0 0"
    ascent="1755"
    descent="-293"
    bbox="23 0 1709.77 1755"
    underline-thickness="0"
    underline-position="0"
    unicode-range="U+0020-F500"
  />
<missing-glyph horiz-adv-x="1024" 
d="M256 128h512v1499h-512v-1499zM128 0v1755h768v-1755h-768z" />
    <glyph glyph-name=".notdef" horiz-adv-x="1024" 
d="M256 128h512v1499h-512v-1499zM128 0v1755h768v-1755h-768z" />
    <glyph glyph-name=".null" horiz-adv-x="0" 
 />
    <glyph glyph-name="nonmarkingreturn" horiz-adv-x="682" 
 />
    <glyph glyph-name="space" unicode=" " horiz-adv-x="512" 
 />
    <glyph glyph-name="uni00A0" unicode="&#xa0;" horiz-adv-x="512" 
 />
    <glyph glyph-name="dieresis" unicode="&#xa8;" 
 />
    <glyph glyph-name="copyright" unicode="&#xa9;" 
 />
    <glyph glyph-name="registered" unicode="&#xae;" 
 />
    <glyph glyph-name="acute" unicode="&#xb4;" 
 />
    <glyph glyph-name="AE" unicode="&#xc6;" 
 />
    <glyph glyph-name="Oslash" unicode="&#xd8;" 
 />
    <glyph glyph-name="uni2000" unicode="&#x2000;" horiz-adv-x="877" 
 />
    <glyph glyph-name="uni2001" unicode="&#x2001;" horiz-adv-x="1756" 
 />
    <glyph glyph-name="uni2002" unicode="&#x2002;" horiz-adv-x="877" 
 />
    <glyph glyph-name="uni2003" unicode="&#x2003;" horiz-adv-x="1756" 
 />
    <glyph glyph-name="uni2004" unicode="&#x2004;" horiz-adv-x="585" 
 />
    <glyph glyph-name="uni2005" unicode="&#x2005;" horiz-adv-x="438" 
 />
    <glyph glyph-name="uni2006" unicode="&#x2006;" horiz-adv-x="292" 
 />
    <glyph glyph-name="uni2007" unicode="&#x2007;" horiz-adv-x="292" 
 />
    <glyph glyph-name="uni2008" unicode="&#x2008;" horiz-adv-x="219" 
 />
    <glyph glyph-name="uni2009" unicode="&#x2009;" horiz-adv-x="350" 
 />
    <glyph glyph-name="uni200A" unicode="&#x200a;" horiz-adv-x="97" 
 />
    <glyph glyph-name="uni202F" unicode="&#x202f;" horiz-adv-x="350" 
 />
    <glyph glyph-name="uni205F" unicode="&#x205f;" horiz-adv-x="438" 
 />
    <glyph glyph-name="trademark" unicode="&#x2122;" 
 />
    <glyph glyph-name="infinity" unicode="&#x221e;" 
 />
    <glyph glyph-name="notequal" unicode="&#x2260;" 
 />
    <glyph glyph-name="uni25FC" unicode="&#x25fc;" horiz-adv-x="571" 
d="M0 0z" />
    <glyph glyph-name="user" unicode="&#xf000;" horiz-adv-x="1724" 
d="M864 1707q171 0 326.5 -66.5t268 -179t179 -268t66.5 -326.5t-66.5 -326.5t-179 -268.5t-268 -179.5t-326.5 -66.5t-327 66.5t-268.5 179.5t-179 268.5t-66.5 326.5t66.5 326.5t179 268t268.5 179t327 66.5zM863.5 1577q-144.5 0 -276 -56t-226.5 -151.5t-151.5 -227
t-56.5 -276t56.5 -276t151.5 -226.5t226.5 -151.5t276 -56.5t276 56.5t227 151.5t151.5 226.5t56 276t-56 276t-151.5 227t-227 151.5t-276 56zM612 1162q0 104 73.5 178t178 74t178 -74t73.5 -178t-73.5 -178t-178 -74t-178 74t-73.5 178zM360 597q110 105 238 162t266 57
t266 -56.5t238 -162.5q-73 -137 -208 -219.5t-296 -82.5t-296 82.5t-208 219.5z" />
    <glyph glyph-name="project" unicode="&#xf001;" horiz-adv-x="1755" 
d="M762.391 1659.23q34.7266 -37.9258 107.315 -37.8369q72.5889 0.0878906 107.314 38.041q20.5889 22.5781 50.334 26.0166q29.7451 3.43945 55.1172 -12.4395q25.3721 -15.8779 34.2227 -45.1162q9.54297 -31.8096 44.7988 -58.9219q35.2549 -27.1133 74.6533 -35.8936
q39.3975 -8.78027 73.8789 1.83594q44.2783 17.834 81.9121 -12.0967t30.1133 -77.1953q-7.98926 -50.708 37.334 -107.429t96.6055 -60.0977q48.752 -3.22949 69.4531 -45.9014q20.7012 -42.6709 -7.19336 -82.918q-29.1719 -42.2471 -13.0049 -113.102
q16.168 -70.8535 60.7227 -96.2041q43.6719 -24.7578 43.8018 -71.6035q0.130859 -46.8457 -43.5967 -71.7568q-44.5391 -25.3418 -60.6201 -96.2051t13.1064 -113.101q29.3965 -42.2363 9.44727 -83.8662q-19.9492 -41.6289 -71.502 -45.1572
q-51.3174 -3.53418 -96.5947 -60.2969t-37.1396 -107.435q8.21191 -51.3945 -28.2842 -79.8389q-36.4961 -28.4434 -83.5361 -9.65918q-34.5703 10.5166 -73.9707 1.63867q-39.3994 -8.87793 -74.6074 -36.0449t-44.7529 -58.9824q-15.2148 -51.0244 -59.3662 -61.1074
t-80.1025 29.3633q-34.7266 37.9248 -107.315 37.8369q-72.5879 -0.0888672 -107.315 -38.041q-35.9463 -39.4609 -80.127 -29.4658q-44.1816 9.99414 -59.5469 61.0049q-9.54004 31.8027 -44.7969 58.9287q-35.2578 27.127 -74.6543 35.9463
q-39.3955 8.81934 -73.8799 -1.69141q-48.832 -19.6562 -84.5771 8.85352q-35.7441 28.5098 -27.4482 80.4395q7.99023 50.707 -37.333 107.428t-96.6064 60.0986q-51.5586 3.37598 -71.6025 44.9785q-20.0439 41.6035 9.34375 83.8408q29.1729 42.2461 13.0049 113.101
q-16.167 70.8545 -60.7236 96.2051q-43.7246 24.8535 -43.7246 71.6504t43.5195 71.709q44.54 25.3408 60.6211 96.2051q16.082 70.8633 -13.1074 113.101q-28.7236 41.3184 -8.44727 83.4814t70.502 45.543q51.2842 3.53125 96.5049 60.2773
q45.2197 56.7471 37.2295 107.454q-7.51758 47.2588 30.0098 77.2188q37.5283 29.9609 81.8115 12.2783q34.5713 -10.5166 73.9707 -1.63867q39.4004 8.87891 74.6084 36.0449q35.208 27.167 44.752 58.9824q8.75293 29.3389 34.0781 45.3057t55.0664 12.5391
q29.7402 -3.42773 50.3242 -26.3047z" />
    <glyph glyph-name="_537" unicode="&#xf23c;" 
 />
    <glyph glyph-name="_538" unicode="&#xf23d;" 
 />
    <glyph glyph-name="_539" unicode="&#xf23e;" 
 />
    <glyph glyph-name="lessequal" unicode="&#xf500;" 
 />
  </font>
</defs>
</svg>
